<svg xmlns="http://www.w3.org/2000/svg" viewBox="0 0 1200 675" fill="none">
  <!-- Background -->
  <rect width="1200" height="675" fill="#FAFAFA"/>
  
  <!-- Header Bar -->
  <rect width="1200" height="64" fill="white"/>
  <rect y="64" width="1200" height="1" fill="#E5E7EB"/>
  
  <!-- Logo -->
  <rect x="24" y="16" width="32" height="32" rx="8" fill="url(#purpleGrad)"/>
  <text x="40" y="38" fill="white" font-family="system-ui" font-size="14" font-weight="bold" text-anchor="middle">B</text>
  
  <!-- Main Content -->
  <rect x="24" y="88" width="1152" height="563" rx="12" fill="white" stroke="#E5E7EB"/>
  
  <!-- Title with Icon -->
  <circle cx="64" cy="124" r="20" fill="#F5F3FF"/>
  <text x="64" y="130" fill="#8B5CF6" font-family="system-ui" font-size="18" text-anchor="middle">✦</text>
  <text x="100" y="124" fill="#1F2937" font-family="system-ui" font-size="24" font-weight="bold">AI Assistant</text>
  <text x="100" y="148" fill="#6B7280" font-family="system-ui" font-size="14">Generate content, extract data, and get answers</text>
  
  <!-- Tab Bar -->
  <g>
    <rect x="48" y="180" width="160" height="40" rx="8" fill="#8B5CF6" opacity="0.1"/>
    <text x="78" y="204" fill="#8B5CF6" font-family="system-ui" font-size="12">✦</text>
    <text x="96" y="205" fill="#8B5CF6" font-family="system-ui" font-size="13" font-weight="500">Generate Content</text>
    
    <rect x="220" y="180" width="180" height="40" rx="8" fill="transparent"/>
    <text x="250" y="205" fill="#6B7280" font-family="system-ui" font-size="13">📄 Extract from Documents</text>
    
    <rect x="412" y="180" width="140" height="40" rx="8" fill="transparent"/>
    <text x="442" y="205" fill="#6B7280" font-family="system-ui" font-size="13">💬 Chat Assistant</text>
  </g>
  
  <!-- Left Panel - Content Options -->
  <rect x="48" y="240" width="340" height="380" rx="12" fill="#F9FAFB" stroke="#E5E7EB"/>
  
  <!-- Show Selector -->
  <text x="72" y="274" fill="#374151" font-family="system-ui" font-size="13" font-weight="500">Select a Show</text>
  <rect x="72" y="286" width="292" height="40" rx="8" fill="white" stroke="#E5E7EB"/>
  <text x="88" y="311" fill="#1F2937" font-family="system-ui" font-size="14">ICBA Live 2026</text>
  <text x="340" y="311" fill="#9CA3AF" font-family="system-ui" font-size="14">▾</text>
  
  <!-- Content Type -->
  <text x="72" y="360" fill="#374151" font-family="system-ui" font-size="13" font-weight="500">Content Type</text>
  
  <!-- Content Options Grid -->
  <g>
    <rect x="72" y="376" width="140" height="56" rx="8" fill="#8B5CF6" opacity="0.1" stroke="#8B5CF6"/>
    <text x="88" y="400" fill="#7C3AED" font-family="system-ui" font-size="13" font-weight="500">Pre-Show Outreach</text>
    <text x="88" y="418" fill="#9CA3AF" font-family="system-ui" font-size="11">3 email templates</text>
    
    <rect x="224" y="376" width="140" height="56" rx="8" fill="white" stroke="#E5E7EB"/>
    <text x="240" y="400" fill="#374151" font-family="system-ui" font-size="13" font-weight="500">Talking Points</text>
    <text x="240" y="418" fill="#9CA3AF" font-family="system-ui" font-size="11">Booth conversations</text>
    
    <rect x="72" y="444" width="140" height="56" rx="8" fill="white" stroke="#E5E7EB"/>
    <text x="88" y="468" fill="#374151" font-family="system-ui" font-size="13" font-weight="500">Social Posts</text>
    <text x="88" y="486" fill="#9CA3AF" font-family="system-ui" font-size="11">LinkedIn ready</text>
    
    <rect x="224" y="444" width="140" height="56" rx="8" fill="white" stroke="#E5E7EB"/>
    <text x="240" y="468" fill="#374151" font-family="system-ui" font-size="13" font-weight="500">Follow-up Email</text>
    <text x="240" y="486" fill="#9CA3AF" font-family="system-ui" font-size="11">Post-show nurture</text>
  </g>
  
  <!-- Generate Button -->
  <rect x="72" y="560" width="292" height="44" rx="8" fill="#8B5CF6"/>
  <text x="188" y="587" fill="white" font-family="system-ui" font-size="14" font-weight="500">✦ Generate</text>
  
  <!-- Right Panel - Output -->
  <rect x="408" y="240" width="720" height="380" rx="12" fill="white" stroke="#E5E7EB"/>
  
  <!-- Output Header -->
  <rect x="408" y="240" width="720" height="48" rx="12" fill="#F9FAFB"/>
  <text x="432" y="270" fill="#1F2937" font-family="system-ui" font-size="14" font-weight="600">Generated: Pre-Show Outreach Emails</text>
  <rect x="1024" y="252" width="80" height="28" rx="6" fill="white" stroke="#E5E7EB"/>
  <text x="1064" y="271" fill="#6B7280" font-family="system-ui" font-size="12" text-anchor="middle">Copy All</text>
  
  <!-- Email 1 -->
  <rect x="432" y="308" width="672" height="90" rx="8" fill="#F9FAFB" stroke="#E5E7EB"/>
  <text x="452" y="332" fill="#8B5CF6" font-family="system-ui" font-size="12" font-weight="600">EMAIL 1: PROSPECTS</text>
  <text x="452" y="356" fill="#1F2937" font-family="system-ui" font-size="14" font-weight="500">Subject: Join us at ICBA Live 2026 in Nashville!</text>
  <text x="452" y="378" fill="#6B7280" font-family="system-ui" font-size="13">Hi [Name], We're excited to announce that Directlink will be exhibiting at...</text>
  
  <!-- Email 2 -->
  <rect x="432" y="410" width="672" height="90" rx="8" fill="white" stroke="#E5E7EB"/>
  <text x="452" y="434" fill="#10B981" font-family="system-ui" font-size="12" font-weight="600">EMAIL 2: CUSTOMERS</text>
  <text x="452" y="458" fill="#1F2937" font-family="system-ui" font-size="14" font-weight="500">Subject: See what's new at ICBA Live - Booth #A-123</text>
  <text x="452" y="480" fill="#6B7280" font-family="system-ui" font-size="13">Dear [Name], As a valued Directlink customer, we wanted to personally invite...</text>
  
  <!-- Email 3 -->
  <rect x="432" y="512" width="672" height="90" rx="8" fill="white" stroke="#E5E7EB"/>
  <text x="452" y="536" fill="#F59E0B" font-family="system-ui" font-size="12" font-weight="600">EMAIL 3: PARTNERS</text>
  <text x="452" y="560" fill="#1F2937" font-family="system-ui" font-size="14" font-weight="500">Subject: Let's connect at ICBA Live 2026</text>
  <text x="452" y="582" fill="#6B7280" font-family="system-ui" font-size="13">Hi [Name], ICBA Live is just around the corner, and we'd love to meet with...</text>
  
  <defs>
    <linearGradient id="purpleGrad" x1="0%" y1="0%" x2="100%" y2="100%">
      <stop offset="0%" style="stop-color:#8B5CF6"/>
      <stop offset="100%" style="stop-color:#7C3AED"/>
    </linearGradient>
  </defs>
</svg>