<svg xmlns="http://www.w3.org/2000/svg" viewBox="0 0 1200 675" fill="none">
  <!-- Background -->
  <rect width="1200" height="675" fill="#FAFAFA"/>
  
  <!-- Header Bar -->
  <rect width="1200" height="64" fill="white"/>
  <rect y="64" width="1200" height="1" fill="#E5E7EB"/>
  
  <!-- Logo -->
  <rect x="24" y="16" width="32" height="32" rx="8" fill="url(#purpleGrad)"/>
  <text x="40" y="38" fill="white" font-family="system-ui" font-size="14" font-weight="bold" text-anchor="middle">B</text>
  
  <!-- Main Content -->
  <rect x="24" y="88" width="1152" height="563" rx="12" fill="white" stroke="#E5E7EB"/>
  
  <!-- Title -->
  <text x="48" y="130" fill="#1F2937" font-family="system-ui" font-size="24" font-weight="bold">Budget Reports</text>
  <text x="48" y="152" fill="#6B7280" font-family="system-ui" font-size="14">Track and analyze your trade show spending</text>
  
  <!-- Time Filter Pills -->
  <g>
    <rect x="900" y="108" width="70" height="32" rx="6" fill="#F3F4F6"/>
    <text x="935" y="129" fill="#6B7280" font-family="system-ui" font-size="12" text-anchor="middle">Quarter</text>
    <rect x="978" y="108" width="50" height="32" rx="6" fill="#8B5CF6"/>
    <text x="1003" y="129" fill="white" font-family="system-ui" font-size="12" text-anchor="middle">Year</text>
    <rect x="1036" y="108" width="70" height="32" rx="6" fill="#F3F4F6"/>
    <text x="1071" y="129" fill="#6B7280" font-family="system-ui" font-size="12" text-anchor="middle">All Time</text>
  </g>
  
  <!-- Stat Cards Row -->
  <!-- Total Spend -->
  <rect x="48" y="180" width="260" height="120" rx="12" fill="#F0FDF4" stroke="#BBF7D0"/>
  <circle cx="80" cy="220" r="20" fill="#DCFCE7"/>
  <text x="80" y="226" fill="#16A34A" font-family="system-ui" font-size="20" text-anchor="middle">$</text>
  <text x="120" y="240" fill="#1F2937" font-family="system-ui" font-size="32" font-weight="bold">$127,450</text>
  <text x="120" y="268" fill="#6B7280" font-family="system-ui" font-size="14">TOTAL SPEND</text>
  
  <!-- Shows Count -->
  <rect x="328" y="180" width="260" height="120" rx="12" fill="#EFF6FF" stroke="#BFDBFE"/>
  <circle cx="360" cy="220" r="20" fill="#DBEAFE"/>
  <rect x="352" y="214" width="16" height="12" rx="2" stroke="#3B82F6" stroke-width="2" fill="none"/>
  <text x="400" y="240" fill="#1F2937" font-family="system-ui" font-size="32" font-weight="bold">22</text>
  <text x="400" y="268" fill="#6B7280" font-family="system-ui" font-size="14">SHOWS THIS YEAR</text>
  
  <!-- Avg per Show -->
  <rect x="608" y="180" width="260" height="120" rx="12" fill="#FEF3C7" stroke="#FDE68A"/>
  <circle cx="640" cy="220" r="20" fill="#FEF9C3"/>
  <text x="640" y="226" fill="#CA8A04" font-family="system-ui" font-size="16" text-anchor="middle">⌀</text>
  <text x="680" y="240" fill="#1F2937" font-family="system-ui" font-size="32" font-weight="bold">$5,793</text>
  <text x="680" y="268" fill="#6B7280" font-family="system-ui" font-size="14">AVG PER SHOW</text>
  
  <!-- ROI -->
  <rect x="888" y="180" width="260" height="120" rx="12" fill="#F5F3FF" stroke="#DDD6FE"/>
  <circle cx="920" cy="220" r="20" fill="#EDE9FE"/>
  <text x="920" y="226" fill="#7C3AED" font-family="system-ui" font-size="16" text-anchor="middle">↗</text>
  <text x="960" y="240" fill="#1F2937" font-family="system-ui" font-size="32" font-weight="bold">3.2x</text>
  <text x="960" y="268" fill="#6B7280" font-family="system-ui" font-size="14">AVERAGE ROI</text>
  
  <!-- Chart Area -->
  <rect x="48" y="320" width="700" height="300" rx="12" fill="white" stroke="#E5E7EB"/>
  <text x="72" y="356" fill="#1F2937" font-family="system-ui" font-size="16" font-weight="600">Spending by Category</text>
  
  <!-- Bar Chart -->
  <g>
    <rect x="100" y="390" width="180" height="24" rx="4" fill="#8B5CF6"/>
    <text x="100" y="428" fill="#6B7280" font-family="system-ui" font-size="11">Booth Fees</text>
    <text x="290" y="407" fill="#374151" font-family="system-ui" font-size="12">$45,200</text>
    
    <rect x="100" y="450" width="140" height="24" rx="4" fill="#06B6D4"/>
    <text x="100" y="488" fill="#6B7280" font-family="system-ui" font-size="11">Travel</text>
    <text x="250" y="467" fill="#374151" font-family="system-ui" font-size="12">$32,100</text>
    
    <rect x="100" y="510" width="100" height="24" rx="4" fill="#10B981"/>
    <text x="100" y="548" fill="#6B7280" font-family="system-ui" font-size="11">Shipping</text>
    <text x="210" y="527" fill="#374151" font-family="system-ui" font-size="12">$18,750</text>
    
    <rect x="100" y="570" width="80" height="24" rx="4" fill="#F59E0B"/>
    <text x="100" y="608" fill="#6B7280" font-family="system-ui" font-size="11">Services</text>
    <text x="190" y="587" fill="#374151" font-family="system-ui" font-size="12">$15,400</text>
  </g>
  
  <!-- Top Shows List -->
  <rect x="768" y="320" width="380" height="300" rx="12" fill="white" stroke="#E5E7EB"/>
  <text x="792" y="356" fill="#1F2937" font-family="system-ui" font-size="16" font-weight="600">Top Shows by Spend</text>
  
  <g font-family="system-ui">
    <rect x="792" y="380" width="332" height="48" rx="6" fill="#F9FAFB"/>
    <text x="812" y="400" fill="#1F2937" font-size="14" font-weight="500">ICBA Live 2026</text>
    <text x="812" y="418" fill="#6B7280" font-size="12">Nashville, TN</text>
    <text x="1084" y="404" fill="#1F2937" font-size="14" font-weight="600" text-anchor="end">$18,500</text>
    
    <rect x="792" y="436" width="332" height="48" rx="6" fill="white"/>
    <text x="812" y="456" fill="#1F2937" font-size="14" font-weight="500">Tech Expo 2026</text>
    <text x="812" y="474" fill="#6B7280" font-size="12">Las Vegas, NV</text>
    <text x="1084" y="460" fill="#1F2937" font-size="14" font-weight="600" text-anchor="end">$15,750</text>
    
    <rect x="792" y="492" width="332" height="48" rx="6" fill="#F9FAFB"/>
    <text x="812" y="512" fill="#1F2937" font-size="14" font-weight="500">FinTech Connect</text>
    <text x="812" y="530" fill="#6B7280" font-size="12">New York, NY</text>
    <text x="1084" y="516" fill="#1F2937" font-size="14" font-weight="600" text-anchor="end">$12,200</text>
    
    <rect x="792" y="548" width="332" height="48" rx="6" fill="white"/>
    <text x="812" y="568" fill="#1F2937" font-size="14" font-weight="500">CU Direct Summit</text>
    <text x="812" y="586" fill="#6B7280" font-size="12">San Diego, CA</text>
    <text x="1084" y="572" fill="#1F2937" font-size="14" font-weight="600" text-anchor="end">$9,800</text>
  </g>
  
  <defs>
    <linearGradient id="purpleGrad" x1="0%" y1="0%" x2="100%" y2="100%">
      <stop offset="0%" style="stop-color:#8B5CF6"/>
      <stop offset="100%" style="stop-color:#7C3AED"/>
    </linearGradient>
  </defs>
</svg>