<svg xmlns="http://www.w3.org/2000/svg" viewBox="0 0 1200 675" fill="none">
  <!-- Background -->
  <rect width="1200" height="675" fill="#FAFAFA"/>
  
  <!-- Header Bar -->
  <rect width="1200" height="64" fill="white"/>
  <rect y="64" width="1200" height="1" fill="#E5E7EB"/>
  
  <!-- Logo -->
  <rect x="24" y="16" width="32" height="32" rx="8" fill="url(#purpleGrad)"/>
  <text x="40" y="38" fill="white" font-family="system-ui" font-size="14" font-weight="bold" text-anchor="middle">B</text>
  <text x="68" y="38" fill="#1F2937" font-family="system-ui" font-size="16" font-weight="bold">Booth</text>
  
  <!-- Nav Icons -->
  <g fill="#9CA3AF">
    <rect x="180" y="20" width="24" height="24" rx="4" fill="#F3F4F6"/>
    <rect x="216" y="20" width="24" height="24" rx="4" fill="#F3F4F6"/>
    <rect x="252" y="20" width="24" height="24" rx="4" fill="#8B5CF6" opacity="0.15"/>
    <rect x="288" y="20" width="24" height="24" rx="4" fill="#F3F4F6"/>
  </g>
  
  <!-- Calendar Icon (active) -->
  <rect x="256" y="24" width="16" height="16" rx="2" stroke="#8B5CF6" stroke-width="2" fill="none"/>
  <line x1="256" y1="28" x2="272" y2="28" stroke="#8B5CF6" stroke-width="2"/>
  
  <!-- Main Content Area -->
  <rect x="24" y="88" width="1152" height="563" rx="12" fill="white" stroke="#E5E7EB"/>
  
  <!-- Month Header -->
  <text x="48" y="130" fill="#1F2937" font-family="system-ui" font-size="28" font-weight="bold">February 2026</text>
  <rect x="1040" y="108" width="80" height="32" rx="6" fill="#8B5CF6"/>
  <text x="1080" y="129" fill="white" font-family="system-ui" font-size="14" font-weight="500" text-anchor="middle">Today</text>
  
  <!-- Day Headers -->
  <g fill="#6B7280" font-family="system-ui" font-size="12" font-weight="500">
    <text x="100" y="175" text-anchor="middle">Sun</text>
    <text x="264" y="175" text-anchor="middle">Mon</text>
    <text x="428" y="175" text-anchor="middle">Tue</text>
    <text x="592" y="175" text-anchor="middle">Wed</text>
    <text x="756" y="175" text-anchor="middle">Thu</text>
    <text x="920" y="175" text-anchor="middle">Fri</text>
    <text x="1084" y="175" text-anchor="middle">Sat</text>
  </g>
  
  <!-- Calendar Grid -->
  <g stroke="#E5E7EB">
    <line x1="182" y1="190" x2="182" y2="630" stroke-width="1"/>
    <line x1="346" y1="190" x2="346" y2="630" stroke-width="1"/>
    <line x1="510" y1="190" x2="510" y2="630" stroke-width="1"/>
    <line x1="674" y1="190" x2="674" y2="630" stroke-width="1"/>
    <line x1="838" y1="190" x2="838" y2="630" stroke-width="1"/>
    <line x1="1002" y1="190" x2="1002" y2="630" stroke-width="1"/>
    <line x1="48" y1="280" x2="1152" y2="280" stroke-width="1"/>
    <line x1="48" y1="370" x2="1152" y2="370" stroke-width="1"/>
    <line x1="48" y1="460" x2="1152" y2="460" stroke-width="1"/>
    <line x1="48" y1="550" x2="1152" y2="550" stroke-width="1"/>
  </g>
  
  <!-- Day Numbers Row 1 -->
  <g fill="#374151" font-family="system-ui" font-size="14">
    <text x="60" y="220">1</text>
    <text x="196" y="220">2</text>
    <text x="360" y="220">3</text>
    <text x="524" y="220">4</text>
    <text x="688" y="220">5</text>
    <text x="852" y="220">6</text>
    <text x="1016" y="220">7</text>
  </g>
  
  <!-- Day Numbers Row 2 -->
  <g fill="#374151" font-family="system-ui" font-size="14">
    <text x="60" y="310">8</text>
    <text x="196" y="310">9</text>
    <text x="360" y="310">10</text>
    <text x="524" y="310">11</text>
    <text x="688" y="310">12</text>
    <text x="852" y="310">13</text>
    <text x="1016" y="310">14</text>
  </g>
  
  <!-- Today Highlight -->
  <circle cx="866" cy="306" r="16" fill="#8B5CF6"/>
  <text x="866" y="311" fill="white" font-family="system-ui" font-size="14" font-weight="500" text-anchor="middle">13</text>
  
  <!-- Trade Show Event Bar -->
  <rect x="362" y="330" width="470" height="28" rx="4" fill="#10B981" opacity="0.15"/>
  <rect x="362" y="330" width="4" height="28" rx="2" fill="#10B981"/>
  <text x="376" y="349" fill="#059669" font-family="system-ui" font-size="12" font-weight="500">ICBA Live 2026 - Nashville</text>
  
  <!-- Another Event -->
  <rect x="690" y="420" width="306" height="28" rx="4" fill="#8B5CF6" opacity="0.15"/>
  <rect x="690" y="420" width="4" height="28" rx="2" fill="#8B5CF6"/>
  <text x="704" y="439" fill="#7C3AED" font-family="system-ui" font-size="12" font-weight="500">Tech Expo 2026</text>
  
  <!-- Day Numbers Row 3-4 -->
  <g fill="#374151" font-family="system-ui" font-size="14">
    <text x="60" y="400">15</text>
    <text x="196" y="400">16</text>
    <text x="360" y="400">17</text>
    <text x="524" y="400">18</text>
    <text x="688" y="400">19</text>
    <text x="852" y="400">20</text>
    <text x="1016" y="400">21</text>
    <text x="60" y="490">22</text>
    <text x="196" y="490">23</text>
    <text x="360" y="490">24</text>
    <text x="524" y="490">25</text>
    <text x="688" y="490">26</text>
    <text x="852" y="490">27</text>
    <text x="1016" y="490">28</text>
  </g>
  
  <defs>
    <linearGradient id="purpleGrad" x1="0%" y1="0%" x2="100%" y2="100%">
      <stop offset="0%" style="stop-color:#8B5CF6"/>
      <stop offset="100%" style="stop-color:#7C3AED"/>
    </linearGradient>
  </defs>
</svg>