<svg xmlns="http://www.w3.org/2000/svg" viewBox="0 0 1200 675" fill="none">
  <!-- Background -->
  <rect width="1200" height="675" fill="#FAFAFA"/>
  
  <!-- Header Bar -->
  <rect width="1200" height="64" fill="white"/>
  <rect y="64" width="1200" height="1" fill="#E5E7EB"/>
  
  <!-- Logo -->
  <rect x="24" y="16" width="32" height="32" rx="8" fill="url(#purpleGrad)"/>
  <text x="40" y="38" fill="white" font-family="system-ui" font-size="14" font-weight="bold" text-anchor="middle">B</text>
  <text x="68" y="38" fill="#1F2937" font-family="system-ui" font-size="16" font-weight="bold">Booth</text>
  
  <!-- Main Content -->
  <rect x="24" y="88" width="1152" height="563" rx="12" fill="white" stroke="#E5E7EB"/>
  
  <!-- Dashboard Title -->
  <text x="48" y="130" fill="#1F2937" font-family="system-ui" font-size="28" font-weight="bold">Dashboard</text>
  <text x="48" y="154" fill="#6B7280" font-family="system-ui" font-size="14">Thursday, February 13, 2026</text>
  
  <!-- Refresh Button -->
  <rect x="1040" y="108" width="80" height="36" rx="8" fill="#8B5CF6"/>
  <text x="1080" y="131" fill="white" font-family="system-ui" font-size="13" text-anchor="middle">Refresh</text>
  
  <!-- Stat Cards Row -->
  <g>
    <!-- Total Shows -->
    <rect x="48" y="180" width="260" height="100" rx="12" fill="white" stroke="#E5E7EB"/>
    <circle cx="80" cy="220" r="20" fill="#EFF6FF"/>
    <rect x="72" y="212" width="16" height="16" rx="3" stroke="#3B82F6" stroke-width="2" fill="none"/>
    <text x="120" y="225" fill="#1F2937" font-family="system-ui" font-size="32" font-weight="bold">22</text>
    <text x="120" y="255" fill="#6B7280" font-family="system-ui" font-size="14">TOTAL SHOWS</text>
    <text x="270" y="255" fill="#9CA3AF" font-family="system-ui" font-size="12" text-anchor="end">2026</text>
    
    <!-- Upcoming -->
    <rect x="328" y="180" width="260" height="100" rx="12" fill="white" stroke="#E5E7EB"/>
    <circle cx="360" cy="220" r="20" fill="#F0FDF4"/>
    <text x="360" y="226" fill="#16A34A" font-family="system-ui" font-size="14" text-anchor="middle">↗</text>
    <text x="400" y="225" fill="#1F2937" font-family="system-ui" font-size="32" font-weight="bold">8</text>
    <text x="400" y="255" fill="#6B7280" font-family="system-ui" font-size="14">UPCOMING</text>
    <text x="550" y="255" fill="#10B981" font-family="system-ui" font-size="12" text-anchor="end">3 this month</text>
    
    <!-- This Month -->
    <rect x="608" y="180" width="260" height="100" rx="12" fill="white" stroke="#E5E7EB"/>
    <circle cx="640" cy="220" r="20" fill="#FEF3C7"/>
    <rect x="632" y="212" width="16" height="16" rx="3" stroke="#F59E0B" stroke-width="2" fill="none"/>
    <text x="680" y="225" fill="#1F2937" font-family="system-ui" font-size="32" font-weight="bold">3</text>
    <text x="680" y="255" fill="#6B7280" font-family="system-ui" font-size="14">THIS MONTH</text>
    <text x="830" y="255" fill="#9CA3AF" font-family="system-ui" font-size="12" text-anchor="end">February</text>
    
    <!-- Total Budget -->
    <rect x="888" y="180" width="260" height="100" rx="12" fill="white" stroke="#E5E7EB"/>
    <circle cx="920" cy="220" r="20" fill="#F5F3FF"/>
    <text x="920" y="226" fill="#8B5CF6" font-family="system-ui" font-size="16" text-anchor="middle">$</text>
    <text x="960" y="225" fill="#1F2937" font-family="system-ui" font-size="28" font-weight="bold">$127K</text>
    <text x="960" y="255" fill="#6B7280" font-family="system-ui" font-size="14">TOTAL BUDGET</text>
    <text x="1110" y="255" fill="#9CA3AF" font-family="system-ui" font-size="12" text-anchor="end">$85K spent</text>
  </g>
  
  <!-- Two Column Layout -->
  <!-- Left Column -->
  <rect x="48" y="300" width="540" height="180" rx="12" fill="white" stroke="#E5E7EB"/>
  <rect x="48" y="300" width="540" height="44" rx="12" fill="#FEF2F2"/>
  <text x="72" y="328" fill="#DC2626" font-family="system-ui" font-size="14" font-weight="600">⚠ Needs Attention</text>
  
  <g font-family="system-ui">
    <rect x="72" y="360" width="492" height="48" rx="8" fill="#FEF2F2"/>
    <text x="92" y="384" fill="#DC2626" font-size="12">●</text>
    <text x="110" y="388" fill="#374151" font-size="14">Shipping deadline in 3 days</text>
    <text x="110" y="404" fill="#6B7280" font-size="12">ICBA Live 2026 - Materials must ship by Feb 16</text>
    
    <rect x="72" y="416" width="492" height="48" rx="8" fill="#FEF3C7"/>
    <text x="92" y="440" fill="#F59E0B" font-size="12">●</text>
    <text x="110" y="444" fill="#374151" font-size="14">Hotel booking expires tomorrow</text>
    <text x="110" y="460" fill="#6B7280" font-size="12">Tech Expo 2026 - Group rate expires Feb 14</text>
  </g>
  
  <!-- Right Column - Upcoming Shows -->
  <rect x="608" y="300" width="540" height="180" rx="12" fill="white" stroke="#E5E7EB"/>
  <text x="632" y="332" fill="#1F2937" font-family="system-ui" font-size="14" font-weight="600">📅 Upcoming Shows</text>
  
  <g font-family="system-ui">
    <rect x="632" y="352" width="492" height="56" rx="8" fill="#F9FAFB"/>
    <rect x="648" y="364" width="40" height="32" rx="6" fill="#8B5CF6"/>
    <text x="668" y="378" fill="white" font-size="10" text-anchor="middle">MAR</text>
    <text x="668" y="392" fill="white" font-size="14" font-weight="bold" text-anchor="middle">1</text>
    <text x="704" y="378" fill="#1F2937" font-size="14" font-weight="500">ICBA Live 2026</text>
    <text x="704" y="396" fill="#6B7280" font-size="12">Nashville, TN • 16 days away</text>
    
    <rect x="632" y="416" width="492" height="56" rx="8" fill="white"/>
    <rect x="648" y="428" width="40" height="32" rx="6" fill="#06B6D4"/>
    <text x="668" y="442" fill="white" font-size="10" text-anchor="middle">MAR</text>
    <text x="668" y="456" fill="white" font-size="14" font-weight="bold" text-anchor="middle">15</text>
    <text x="704" y="442" fill="#1F2937" font-size="14" font-weight="500">Tech Expo 2026</text>
    <text x="704" y="460" fill="#6B7280" font-size="12">Las Vegas, NV • 30 days away</text>
  </g>
  
  <!-- Shipping Timeline -->
  <rect x="48" y="500" width="1100" height="130" rx="12" fill="white" stroke="#E5E7EB"/>
  <text x="72" y="532" fill="#1F2937" font-family="system-ui" font-size="14" font-weight="600">🚚 Shipping Timeline</text>
  
  <!-- Timeline Bar -->
  <rect x="72" y="560" width="1052" height="8" rx="4" fill="#E5E7EB"/>
  <rect x="72" y="560" width="200" height="8" rx="4" fill="#10B981"/>
  
  <!-- Timeline Markers -->
  <g font-family="system-ui" font-size="11">
    <circle cx="120" cy="564" r="8" fill="#10B981"/>
    <text x="120" y="600" fill="#374151" text-anchor="middle">Today</text>
    <text x="120" y="614" fill="#6B7280" text-anchor="middle">Feb 13</text>
    
    <circle cx="280" cy="564" r="8" fill="#F59E0B"/>
    <text x="280" y="600" fill="#374151" text-anchor="middle">ICBA Ship</text>
    <text x="280" y="614" fill="#6B7280" text-anchor="middle">Feb 16</text>
    
    <circle cx="500" cy="564" r="8" fill="#E5E7EB" stroke="#8B5CF6" stroke-width="2"/>
    <text x="500" y="600" fill="#374151" text-anchor="middle">ICBA Live</text>
    <text x="500" y="614" fill="#6B7280" text-anchor="middle">Mar 1-4</text>
    
    <circle cx="720" cy="564" r="8" fill="#E5E7EB" stroke="#06B6D4" stroke-width="2"/>
    <text x="720" y="600" fill="#374151" text-anchor="middle">Tech Ship</text>
    <text x="720" y="614" fill="#6B7280" text-anchor="middle">Mar 8</text>
    
    <circle cx="900" cy="564" r="8" fill="#E5E7EB"/>
    <text x="900" y="600" fill="#374151" text-anchor="middle">Tech Expo</text>
    <text x="900" y="614" fill="#6B7280" text-anchor="middle">Mar 15-17</text>
  </g>
  
  <defs>
    <linearGradient id="purpleGrad" x1="0%" y1="0%" x2="100%" y2="100%">
      <stop offset="0%" style="stop-color:#8B5CF6"/>
      <stop offset="100%" style="stop-color:#7C3AED"/>
    </linearGradient>
  </defs>
</svg>